<?xml version="1.0" encoding="UTF-8" standalone="no"?>
<!-- Created with Inkscape (http://www.inkscape.org/) -->

<svg
   version="1.1"
   id="svg1"
   width="1536"
   height="1024"
   viewBox="0 0 1536 1024"
   xmlns="http://www.w3.org/2000/svg"
   xmlns:svg="http://www.w3.org/2000/svg">
  <defs
     id="defs1" />
  <g
     id="g1">
    <path
       style="fill:#000000"
       d="M 765.60697,553 H 534.11455 l 7.5638,-12.75 7.56379,-12.75 1.00137,-1.25 1.00138,-1.25 H 559.12244 567 V 503.02307 481.04615 L 549.25,480.77307 531.5,480.5 l -0.28967,-8.80067 -0.28967,-8.80068 11.28967,-11.46673 11.28967,-11.46674 212.82981,0.008 212.8298,0.008 5.6702,4.74563 5.67019,4.74562 7.25,6.38609 7.25,6.38609 V 471.62257 481 H 986.5 968 v 22 22 h 4.39508 4.39508 l 9.35492,12.67833 9.35492,12.67832 0.79969,1.32168 L 997.09938,553 Z M 767.5,525 H 945 V 503 481 H 767.5 590 v 22 22 z"
       id="path1" />
  </g>
</svg>
