<?xml version="1.0" encoding="UTF-8" standalone="no"?>
<!-- Created with Inkscape (http://www.inkscape.org/) -->

<svg
   width="71.874306mm"
   height="114.53172mm"
   viewBox="0 0 71.874306 114.53172"
   version="1.1"
   id="svg1"
   xml:space="preserve"
   xmlns="http://www.w3.org/2000/svg"
   xmlns:svg="http://www.w3.org/2000/svg"><defs
     id="defs1" /><g
     id="layer1"
     transform="translate(-51.191468,-148.19303)"
     style="display:inline"><path
       id="path90"
       style="display:inline;fill:#e82501"
       d="m 105.33186,167.51855 c -3.02602,12.34359 21.60638,15.50046 7.25436,35.41657 -13.343105,18.51605 5.09783,22.84175 0.55167,32.77916 -2.97208,6.49664 -9.58389,11.76409 -16.449647,13.73921 -4.853797,1.39633 -12.266719,2.19014 -15.012805,-2.04874 -2.09825,-3.23887 4.469254,-7.44401 3.260267,-11.10888 -1.314529,-3.98481 -3.802227,-5.16913 -10.03608,-7.5985 -3.059219,-1.19221 -6.706805,-4.4956 -6.548437,-6.64198 0.378372,-5.12815 4.938762,-8.3681 6.15828,-9.20254 0.881561,-0.57752 9.75735,-5.21705 11.164946,-10.01411 0.767149,-2.61444 -0.68037,-5.59973 -2.171185,-7.88035 -0.07895,-0.12078 -4.164903,-3.50176 -5.012101,-4.08093 -7.333945,-4.58285 -4.985699,-8.10652 3.255167,-13.85167 1.28799,-0.89634 8.81876,-6.37575 8.75869,-9.89842 -0.03464,-2.03154 0.590464,-5.85546 -5.135142,-9.71896 5.298206,6.8351 6.073808,11.81226 -5.354192,18.15703 -3.901349,2.57306 -8.724901,5.11712 -9.111589,10.34304 -0.02779,3.30892 2.415303,5.4048 5.021406,7.28947 2.561493,1.78571 5.67461,3.84102 5.553665,7.20266 0.0046,2.80568 -0.855208,4.87872 -7.913196,8.61137 -7.037694,3.72193 -10.982391,6.87686 -12.607499,10.08413 -2.956706,6.70691 1.157137,9.95484 6.491592,12.69174 2.68197,1.30966 4.415391,2.20391 4.242119,2.75693 -0.08373,0.26724 -7.907211,6.27096 -11.678461,-5.49416 -0.145302,1.24712 -0.944336,2.83866 1.741079,6.2967 0.663321,0.85417 0.868032,0.91265 0.676961,1.54203 -0.294572,0.97031 -0.750755,1.17294 -2.315104,1.97352 -5.255653,2.68966 -7.605103,4.94101 -8.263062,7.91838 -0.09449,0.42757 -0.275403,0.8448 -0.283703,1.28261 -0.0104,0.54567 0.194591,1.07426 0.291971,1.61127 0.488964,2.69648 1.951482,4.97931 4.428671,6.88588 0.226541,0.23337 0.463759,0.45382 0.727087,0.64389 0.372551,0.2689 0.789223,0.46525 1.211812,0.65164 1.565108,0.9141 3.415224,1.72579 5.558834,2.44016 2.938047,0.9791 5.852114,1.54502 8.995834,1.90634 1.110119,0.15591 2.246357,0.28503 3.405477,0.38654 1.481944,0.12978 12.521738,-0.0946 13.94387,-0.27021 0.0018,-9e-5 0.0039,-4.3e-4 0.0057,-5.2e-4 1.71811,-0.21219 3.660842,-0.49483 4.968172,-0.81339 h 5.17e-4 c 1.930765,-0.47054 3.794489,-1.20341 5.621876,-1.98437 h 5.1e-4 c 1.88584,-0.80595 3.77935,-1.6463 5.48959,-2.77813 1.56817,-1.03787 2.90057,-2.39522 4.31188,-3.63802 h 5.2e-4 c 5.70857,-5.47318 11.26557,-9.03097 11.44786,-17.76371 -0.0254,-3.59077 -2.39514,-7.01033 -4.45274,-9.79174 -0.097,-0.13957 -0.19049,-0.2811 -0.28008,-0.4253 l -5.2e-4,5.2e-4 -5.2e-4,-5.2e-4 c -0.79512,-1.27975 -1.73343,-2.57128 -1.99781,-4.05453 h 5.2e-4 c -0.66877,-3.75398 0.0181,-7.48433 0.41238,-9.14415 1.96774,-8.28276 6.87907,-7.63347 7.39335,-17.17048 0.14427,-2.6754 -1.04099,-9.59258 -7.68452,-16.36202 -0.69948,-0.71273 -2.05353,-2.08058 -2.57059,-2.69891 -2.27701,-2.723 -5.08743,-4.15497 -4.30099,-8.11567 0.39321,-1.98034 0.42511,-4.15937 2.58697,-8.09182 2.05937,-3.74602 7.76153,-8.38037 9.00464,-11.29359 -8.85779,8.29011 -13.29696,13.36465 -14.75827,19.32553 z m -35.819707,70.43922 c 0.937756,0 0.474571,0.47135 -1.18339,1.20458 -1.524195,0.67407 -1.662431,0.71882 -1.662431,0.53795 0,-0.32557 2.314158,-1.74253 2.845821,-1.74253 z" /><path
       id="path91"
       style="display:inline;fill:#f75f04"
       d="m 85.371696,157.4093 c 2.003748,3.67507 3.574547,4.37987 3.535852,8.34545 -0.03734,3.83934 -4.030269,6.61148 -8.890043,9.81158 -1.830841,1.35062 -3.901147,2.37908 -5.618261,3.87987 -1.427656,1.29077 -3.482595,3.63821 -3.493327,6.46317 -0.02824,3.30895 0.959384,4.11475 3.896374,6.72713 2.762387,2.45707 6.656927,4.47745 6.570141,7.90184 -0.0973,3.83915 -3.494614,6.19475 -7.805196,8.47442 -7.037694,3.72193 -7.709278,4.04605 -10.666454,7.13749 -1.206789,1.26158 -2.554109,3.92922 -2.716708,4.47782 -0.263789,0.89001 -0.596698,3.71642 0.184334,5.30359 1.352672,2.74883 4.573764,4.63169 7.082921,5.85697 2.68197,1.30966 4.011506,2.29063 4.05503,2.72186 0.07684,0.76133 -4.95045,1.97966 -5.934502,1.43445 -3.400676,-1.88414 -3.702525,-2.30689 -5.558169,-6.89435 -0.524567,2.78759 0.0015,4.05569 1.742378,6.29749 2.025832,2.42488 0.997443,2.29328 -1.638143,3.51554 -16.514289,7.65856 -5.518721,16.59551 -3.099036,18.34204 2.130211,1.27905 4.419733,2.28664 6.770646,3.0918 2.934813,0.97802 6.95765,1.83798 10.523389,2.18591 5.24929,0.5122 14.320376,0.0881 15.821823,-0.16255 -4.374461,0.041 -10.995298,0.25835 -13.89941,0.005 -11.810699,-1.03107 -20.16035,-4.70696 -22.894209,-10.07897 -1.053301,-1.90649 -1.48537,-4.69201 -0.428915,-6.66161 1.221492,-2.51636 3.327829,-4.23196 8.200533,-6.67918 2.032735,-1.12942 3.437191,-1.14711 1.701705,-3.27267 -1.049654,-1.24549 -1.971205,-2.7267 -2.044836,-3.28145 0.33678,0.27502 0.680497,0.69003 1.226799,1.34358 2.024175,2.42155 3.784073,3.14716 7.412467,2.3797 4.196297,-0.88759 3.836686,-2.08275 -1.40715,-4.67103 -3.742247,-1.97202 -5.768022,-3.95357 -6.949416,-7.02938 -0.726369,-1.89113 0.228095,-5.10826 0.739976,-5.11406 l 5.17e-4,-5.2e-4 c -0.766661,3.97826 -0.631742,9.17214 11.012218,12.49329 2.451007,0.69909 4.652095,2.88061 4.907224,4.24057 0.239317,1.27567 -0.371607,2.29568 -3.465939,5.78828 -0.922491,1.04122 -2.081887,1.91279 -2.767273,3.12332 -0.238283,0.42086 -0.29075,0.92264 -0.436149,1.3839 -0.293864,0.93224 -0.374665,1.71957 -0.247013,2.41329 0.06316,0.34324 2.109844,2.55337 3.440318,3.50883 1.683637,1.20909 3.623683,2.07673 5.598446,2.70667 2.201519,0.70228 6.544678,1.01655 6.835719,1.15407 -1.026182,0.14119 -13.209204,-0.0262 -18.392421,-3.50239 -2.543813,-1.70605 -6.041184,-3.89163 -5.015969,-7.69899 0.505657,-1.87786 1.743443,-3.12207 4.904093,-4.93148 3.199966,-1.83193 3.643462,-2.46252 1.984375,-2.8205 -0.308681,-0.0666 -0.610605,-0.21427 -0.926041,-0.19947 -0.590732,0.0278 -1.127556,0.35689 -1.69137,0.53536 -2.063212,0.65308 -4.936858,2.0778 -6.962882,3.45251 -5.992706,4.0662 -4.062027,8.39196 -1.457328,11.03358 13.442026,13.63258 40.197372,11.07554 57.041016,-6.7186 0.71108,-0.75121 1.54175,-1.40499 2.1332,-2.25361 0.46235,-0.66339 0.71735,-1.44926 1.0759,-2.17403 0.67339,-1.36121 1.17964,-2.84654 1.35392,-3.97185 0.0928,-0.59917 0.29254,-1.19167 0.27854,-1.79782 -0.016,-0.69326 -0.27526,-1.35899 -0.41289,-2.03864 -0.2708,-1.33723 -0.91587,-3.04079 -1.87379,-4.94957 -5.73433,-8.76357 -8.9884,-13.94168 -2.78943,-22.53247 5.97304,-8.16679 6.12666,-11.55195 4.52934,-15.92874 -1.06346,-2.91397 -2.35189,-4.65818 -6.37842,-8.6341 -1.39793,-1.38036 -6.40572,-5.51459 -6.47213,-9.79728 -0.0628,-4.05035 1.38339,-8.31364 1.52358,-9.88433 -6.24575,8.92364 -3.11333,12.1389 2.42044,18.35465 9.79339,9.02519 8.37579,17.21065 -1.53595,28.74639 -5.69023,11.39084 4.20007,17.82891 5.0906,23.58257 0.40641,2.62579 -2.68508,8.17718 -7.86736,12.56769 -0.60341,0.51122 -7.602598,4.85162 -8.267701,5.19039 -4.411618,2.24705 -9.033387,3.20726 -13.506152,2.28823 -2.989596,-0.61428 -7.038042,-1.98413 -7.693069,-4.96506 -0.82338,-3.74708 5.365948,-5.96756 6.162931,-9.72034 0.128663,-0.60584 0.0691,-1.32072 -0.271301,-1.83814 -4.270784,-6.49163 -12.220376,-5.59969 -17.382918,-10.05261 -2.944129,-2.53944 -2.967569,-6.50632 -0.05736,-9.7715 2.109684,-2.53783 0.239916,-0.71953 -0.958082,-0.38189 0.65146,-1.23033 3.830875,-3.29314 9.459888,-6.25698 3.930801,-2.06968 4.50857,-2.42016 6.150012,-4.31033 2.896346,-3.33523 0.693046,-7.58703 0.413928,-8.09253 -2.094556,-3.79341 -8.775612,-5.27084 -8.761222,-9.60407 0.02368,-7.13182 10.071436,-10.13962 14.524178,-15.71066 0.731033,-0.91463 1.185329,-1.13773 1.990059,-2.8944 1.000634,-2.19546 0.3931,-4.53273 -0.245018,-6.73814 2.330599,2.79243 2.256148,7.87766 -3.972889,12.7934 -1.138428,0.89841 -2.276451,1.97299 -3.068364,2.57906 0.513137,-0.37367 4.618231,-3.24054 5.12882,-3.78401 1.752995,-1.86589 3.383484,-3.93446 3.803385,-6.37222 0.279262,-1.62127 -0.601024,-4.16118 -0.965832,-4.84001 -1.50542,-2.80126 -1.965295,-2.98814 -4.340303,-4.61832 z m -7.3245,22.39143 c -5.296123,3.92323 -4.691105,6.47749 -3.055225,8.50225 1.16515,1.2128 2.650353,2.07759 3.886068,3.21841 2.007758,1.85358 5.338435,3.90229 6.416996,6.83547 0.506793,1.37824 0.322937,3.31578 -0.21623,4.40008 -0.352079,-2.14297 -0.317922,-5.17828 -2.271542,-6.73028 0.572077,1.04385 0.842564,2.29685 1.09567,3.48942 0.814397,3.56663 -1.048367,6.20769 -3.399954,8.64113 -2.628344,2.7063 -8.550245,5.81072 -8.832534,7.07649 1.019471,-0.82 6.447843,-3.52188 9.196083,-5.91617 1.99588,-1.73883 4.328193,-3.51761 5.17105,-6.02692 0.659782,-1.96427 0.418577,-4.29233 -0.379042,-6.20478 -0.410263,-0.98369 -1.348738,-1.6598 -2.130488,-2.38425 -1.540899,-1.42795 -3.237839,-2.59366 -5.005046,-3.83018 -0.986018,-0.69163 -2.434179,-1.8893 -3.21818,-2.82431 -1.775803,-2.31462 -1.862491,-4.35073 2.742374,-8.24636 z m 45.007424,14.9543 c -2.65915,10.21914 -6.08917,10.26994 -7.39335,17.17048 2.03359,-5.12882 7.66908,-9.96723 7.39335,-17.17048 z M 64.319751,215.8336 c 1.038863,-0.71058 -2.628644,3.73411 -2.196769,2.67734 0.425276,-1.04062 1.259493,-2.03624 2.196769,-2.67734 z m -3.753781,15.13293 c 0.02201,0.13731 0.04118,0.27911 0.0739,0.39842 -0.03274,-0.11924 -0.05186,-0.26115 -0.0739,-0.39842 z m 8.947257,6.99234 c 0.937756,0 0.474571,0.47134 -1.18339,1.20457 -1.524195,0.67407 -1.662431,0.71882 -1.662431,0.53795 0,-0.32557 2.314158,-1.74252 2.845821,-1.74252 z m 0.42633,4.73459 c -1.794116,0.91529 -3.283714,3.207 -2.428276,3.73569 0.524104,0.32392 0.78948,0.10967 2.57762,-2.07739 1.183662,-1.44773 0.440186,-1.95905 -0.149344,-1.6583 z m -10.840681,-0.0563 c 0,0 -5.808196,7.79635 0,0 z m 54.107814,0.42582 c 0.17622,-0.006 -0.27601,0.5912 -1.45004,1.82211 -2.20826,2.31527 -6.68221,5.52081 -6.68021,4.78679 2.6e-4,-0.1121 0.51504,-0.52865 1.14411,-0.92605 0.62906,-0.3974 2.47428,-1.92025 4.10053,-3.38377 1.67882,-1.51085 2.68589,-2.29208 2.88561,-2.29908 z" /><path
       id="path92"
       style="display:inline;fill:#fc9d06"
       d="m 85.184637,157.25726 c 0.588195,1.19963 1.034127,1.84502 2.014417,3.4826 1.796251,3.00064 1.515923,3.55037 1.708494,5.01489 0.734688,-3.46771 -2.718685,-6.79261 -2.403075,-7.12539 0.206122,-0.21732 1.929037,1.08861 3.138826,3.65765 1.492296,2.86888 1.145212,5.09425 -1.293389,9.26726 2.172688,-2.85982 2.212454,-3.61533 2.507843,-5.6566 0.104481,-0.72201 -0.116924,-1.45989 -0.283472,-2.17016 -0.119843,-0.51109 -0.3198,-1.00077 -0.511455,-1.48948 -0.986512,-2.51557 -3.214242,-4.21052 -4.878184,-4.9808 z m 23.000513,6.36986 c -2.21633,2.92315 -2.57139,9.07541 -0.4015,10.94695 -0.68659,-3.29145 -1.4335,-4.46882 0.4015,-10.94695 z m 11.18657,30.13807 c 0.17274,7.61205 -13.54802,14.27672 -8.07344,25.87026 2.1302,4.51113 4.9301,6.3594 4.85655,10.09189 -0.10578,5.36801 -1.14449,8.83364 -7.55096,14.22755 -0.80008,0.65904 -6.34784,4.5352 -6.43527,4.5899 -6.230199,4.14889 -16.145548,5.83088 -23.462647,4.1821 -3.852288,-1.95284 -6.769023,-4.50699 -3.038058,-7.88996 2.087513,-2.09523 5.703426,-3.63282 5.952609,-6.57996 0.166525,-1.96953 -1.784285,-3.6065 -3.183269,-5.0028 -1.846292,-1.84274 -4.395075,-2.81119 -6.610449,-4.18837 -2.645437,-1.64453 -4.858909,-1.91546 -7.978325,-4.86534 -2.045844,-1.93731 -1.101977,-4.11434 -0.135909,-6.28437 -0.963218,0.93752 -1.613956,2.48393 -1.620056,3.47369 -0.03311,5.32858 4.359042,6.98741 8.396904,8.8961 1.768717,0.87125 3.710881,1.45509 5.306136,2.61379 0.387132,0.28119 0.667676,0.68556 1.001489,1.02836 2.047435,2.10253 1.65511,3.47204 -2.215369,7.7339 -3.539922,3.89787 -4.290858,5.47607 -3.521232,7.39955 0.465736,1.16399 2.5488,3.20077 4.059701,3.96926 2.595132,1.31995 8.622719,2.53536 11.391036,2.29702 1.012028,-0.0871 3.527691,-0.0528 3.571875,0.25576 0.12053,0.84212 -8.719896,1.7523 -14.647168,0.36069 -5.662371,-1.32936 -12.219945,-5.47007 -13.006441,-8.21242 -0.933261,-3.25409 0.343653,-5.2517 5.019332,-7.85275 4.073141,-2.26587 3.656392,-2.95702 -0.866614,-1.43712 -3.936109,1.32268 -7.719682,3.80018 -8.706446,5.70094 -3.934468,7.57879 14.76916,21.06642 38.292754,10.46758 4.900037,-2.20777 7.540627,-2.85075 7.540627,-1.83606 0,1.01639 1.38783,0.45197 3.83542,-1.5596 1.01929,-0.83771 2.56749,-2.00929 3.44062,-2.60397 1.91236,-1.30251 4.82946,-4.25278 5.82445,-5.8906 1.79532,-2.36443 3.08572,-4.78053 3.03909,-7.77575 0,-2.84278 -1.91798,-7.08241 -5.22397,-12.53102 -7.259,-10.05019 -0.52838,-15.65625 1.6171,-19.08925 1.70967,-2.73566 3.56009,-5.19591 3.73286,-7.44817 0.12298,-1.6033 0.33333,-7.66118 -2.79576,-10.76619 1.72994,2.72002 2.13872,6.27098 2.19283,8.65536 z m -33.168019,8.94739 c -3.387734,4.92359 -8.021032,8.36721 -9.560438,9.24286 -3.346057,1.90332 -8.216406,4.10138 -8.192347,9.26743 1.72624,-5.31127 7.508927,-6.09949 10.8077,-9.617 2.572949,-2.74356 5.964175,-5.27455 6.945085,-8.89329 z m -26.438484,28.47421 c 0.08777,0.62889 0.01999,1.48929 2.231308,5.06469 0.914617,1.47881 -0.302269,1.06096 -3.925119,3.7216 4.25774,-2.48266 4.897113,-1.73773 4.747169,-2.97292 -0.101276,-0.83428 -1.507307,-2.47103 -2.393633,-4.52518 -0.338781,-0.78516 -0.39081,-1.24172 -0.295073,-2.13166 0.117957,0.30279 0.395468,0.77997 0.547771,1.13275 0.438382,1.01542 2.713854,3.97089 4.895308,4.46897 -1.281004,-0.76374 -3.454594,-2.2739 -4.427793,-4.21787 -0.327745,-0.65467 -0.929119,-2.17318 -1.131467,-2.67655 -0.04068,0.22533 -0.336364,1.5064 -0.248471,2.13617 z m 9.747011,6.77157 c 0.937756,0 0.474571,0.47135 -1.18339,1.20458 -1.524195,0.67407 -1.662431,0.71882 -1.662431,0.53795 0,-0.32557 2.314158,-1.74253 2.845821,-1.74253 z m 44.863412,3.23081 c 0.0433,3e-4 0.0753,0.0159 0.10129,0.0419 0.6282,0.62819 -6.30739,8.26963 -8.39277,9.24698 -1.69322,0.79356 -3.0862,1.18938 -3.43287,0.97513 -0.61695,-0.3813 -0.0671,-1.00155 2.29909,-2.59312 1.2814,-0.86191 3.49847,-2.62542 4.92734,-3.91914 3.33064,-3.01562 4.19459,-3.75371 4.49792,-3.75171 z m -13.17594,12.90877 c -0.21537,0 -1.673884,0.56116 -3.241146,1.24695 -5.333109,2.33361 -5.647649,2.61441 -1.840198,1.64228 2.951414,-0.75356 6.707394,-2.88923 5.081344,-2.88923 z" /></g></svg>
