<?xml version="1.0" encoding="UTF-8" standalone="no"?>
<!-- Created with Inkscape (http://www.inkscape.org/) -->

<svg
   width="147.5258mm"
   height="252.32866mm"
   viewBox="0 0 147.5258 252.32866"
   version="1.1"
   id="svg1"
   xml:space="preserve"
   xmlns="http://www.w3.org/2000/svg"
   xmlns:svg="http://www.w3.org/2000/svg"><defs
     id="defs1" /><g
     id="layer1"
     transform="translate(-21.282356,-10.683581)"
     style="display:inline"><path
       id="path87"
       style="display:inline;fill:#e82501"
       d="m 105.65796,187.86423 c 2.58439,4.01993 2.08495,9.43224 -1.23145,12.86743 -3.0768,5.29526 -4.461183,11.35375 -6.262154,17.15244 -1.269984,5.83076 -2.072684,12.0358 -0.700215,17.90899 2.070499,5.95918 7.057099,10.19904 11.175549,14.74587 2.98088,2.90894 6.34515,5.58533 10.01024,7.68273 1.69098,0.96769 3.44613,1.81224 5.25704,2.49959 0.20843,0.0794 0.42119,0.15744 0.63976,0.23513 1.83235,0.65299 3.72042,1.14332 5.65546,1.4366 0.39638,0.0601 0.79449,0.11231 1.19476,0.15555 0.0628,0.003 0.12577,0.004 0.18862,0.006 1.53994,0.18178 3.09029,0.28692 4.63951,0.35295 2.04319,0.0871 4.09828,0.18403 6.13503,0 3.38079,-0.30547 6.72452,-1.0071 10.01902,-1.82521 7.5e-4,-1.9e-4 0.001,-3.3e-4 0.002,-5.2e-4 0.28321,-0.0703 0.56705,-0.14028 0.85111,-0.21032 2.71954,-0.67054 5.46453,-1.3549 7.97368,-2.58331 0.50597,-0.24771 1.0187,-0.50358 1.52238,-0.77721 1.28962,-0.70059 2.52021,-1.52098 3.43184,-2.6386 0.002,-0.002 0.004,-0.004 0.006,-0.007 h 5.1e-4 c 1.33942,-1.48974 2.21578,-3.44165 2.50218,-5.44411 0.0428,-0.24427 0.0769,-0.48936 0.10232,-0.73432 0.10827,-1.04515 -0.0261,-2.13074 -0.33642,-3.15536 -0.13907,-0.48479 -0.32271,-0.95494 -0.55242,-1.40405 -1.6e-4,-3.3e-4 -3.6e-4,-7.1e-4 -5.2e-4,-0.001 -0.51556,-1.05405 -1.29596,-2.06883 -2.31355,-2.65306 -1.04818,-0.60178 -3.14989,-2.64629 -3.63089,-6.17176 -0.24969,6.16968 -4.01626,3.29682 -6.35351,3.05412 -1.2842,-0.13335 -2.32268,-1.14682 -3.07167,-2.35952 -0.25118,-0.61002 -0.3141,-1.35415 -0.0956,-1.97662 l 5.2e-4,-5.2e-4 c 0.24198,-0.48228 0.56481,-0.89001 0.94516,-1.24643 0.18711,-0.16408 0.38238,-0.31899 0.57051,-0.46974 v -5.2e-4 c 0.28076,-0.20487 0.58145,-0.39197 0.89503,-0.56792 0.47833,-0.25109 0.98152,-0.4647 1.45314,-0.72606 h 5.2e-4 c 1.24269,-0.57569 2.52811,-1.1251 3.52278,-1.96319 1.20522,-0.9316 2.5838,-1.89189 3.15847,-3.30264 v -5.1e-4 c 0.83804,-1.63872 1.36566,-3.62537 1.002,-5.42965 -0.16278,-0.80764 -0.49334,-1.5561 -0.92036,-2.26446 -0.7959,-2.21372 -4.55114,-5.39347 -4.55114,-5.39347 -1.48143,-1.42057 -3.13061,-2.68011 -4.64623,-4.06745 -1.45075,-1.32796 -2.96981,-2.58416 -4.35787,-3.97753 -1.03096,-1.03491 -2.08185,-2.06763 -2.94194,-3.24838 -1.05756,-1.45183 -2.23646,-2.2729 -2.69234,-4.66742 -0.62602,-3.28813 -0.27329,-3.7872 1.87637,-8.82375 -1.94992,1.76218 -3.1366,3.07448 -3.52795,4.77904 -0.3977,1.73224 -0.58293,2.29285 -0.45372,4.07365 0.12922,1.7808 0.93249,3.68461 1.51722,5.2157 0.58473,1.53109 2.51288,3.29996 3.94911,4.78989 2.55276,2.64822 5.74161,5.11458 8.25066,7.32772 2.9e-4,2.9e-4 0.40344,0.40196 0.93379,1.01027 0.93622,1.07383 1.03217,3.06774 0.99081,4.65296 -0.0311,1.19145 -0.1603,2.54023 -0.92604,3.45354 -1.18091,1.40849 -4.99521,2.33524 -4.99521,2.33524 -4.07645,1.35761 -8.007,3.13045 -12.10624,4.44159 -3.06005,1.12096 -7.07546,3.94618 -5.68906,7.71839 1.24955,3.95656 6.00986,6.39064 5.73815,10.84275 v 5.2e-4 c -0.50989,0.97426 -1.45236,1.77415 -2.47323,2.18281 h -5.2e-4 c -5.1e-4,2.1e-4 -0.001,3.2e-4 -0.002,5.2e-4 -1.54843,0.4669 -3.50194,0.3039 -5.2865,0.20257 -1.8e-4,-1e-5 -3.4e-4,1e-5 -5.2e-4,0 -2.44739,-0.1983 -4.99453,-0.42486 -7.21919,-1.46399 -3.93884,-1.83981 -7.05173,-5.28435 -10.19111,-8.13852 -4.15085,-4.52165 -8.83583,-8.74303 -11.85251,-14.15056 -2.27164,-4.16241 -0.48665,-8.94754 0.31523,-13.26327 1.26509,-5.40233 3.95506,-10.29228 6.40994,-15.19649 1.24806,-3.86242 -0.20329,-8.39531 -3.45508,-10.82053 z m 28.57655,52.16219 c 1.09928,0.96703 1.39932,1.23098 0,0 z" /><path
       id="path88"
       style="display:inline;fill:#f75f04"
       d="m 145.68652,187.83529 c -1.2185,1.04078 -1.78341,1.28964 -2.35955,2.19677 -1.07044,1.68544 -1.6138,3.71873 -1.83089,5.70352 -0.0853,0.78007 0.0334,1.58138 0.21807,2.34405 0.32637,1.34763 0.88934,2.6414 1.55236,3.85919 0.56997,1.04687 1.30139,2.00385 2.06241,2.92127 0.88568,1.06771 1.89813,2.0253 2.89801,2.9869 0.96013,0.92337 1.96663,1.85427 2.9745,2.66857 1.00787,0.81429 1.97618,1.61478 2.98276,2.17971 6.10462,3.42615 5.30107,9.31646 4.28553,11.82512 -1.34137,0.71174 -2.95115,1.86306 -4.42505,2.79724 -3.55512,2.2533 -8.38342,1.95392 -10.65723,6.77272 -0.1305,0.27656 -0.0738,0.63872 0.0558,0.9157 0.83107,1.77605 3.08734,2.47953 4.2788,4.03697 1.34344,1.7561 1.93533,3.13782 2.14938,4.91226 0.25026,2.07447 -0.25852,4.2523 -1.07504,6.17568 -0.61259,1.443 -0.90635,2.50448 -2.77294,3.79849 -2.00347,1.3889 -5.08782,2.11606 -7.28328,0.66404 -1.28666,-0.85379 0.23533,-3.01392 0.99529,-3.90364 1.83675,-2.01494 3.5296,-4.57733 -0.56172,-8.02328 -6.3958,-8.05679 -4.01597,-6.37684 -0.47697,-11.80238 -13.8431,4.97758 4.2932,15.97385 -2.30064,20.22977 -0.91198,0.35943 -1.52548,0.68959 -2.49132,0.89708 -0.90438,0.14966 -1.67311,0.20036 -2.37195,0.21601 -5.04143,-0.0587 -10.87465,-3.06954 -13.79037,-6.14071 1.58909,2.05047 4.43721,4.80498 7.92303,6.91689 2.20646,1.3368 4.67446,2.37969 7.23418,2.86029 0.37038,0.0888 0.72797,0.16016 1.06092,0.20051 0.0136,0.002 0.0273,0.003 0.0408,0.005 2.6788,0.54972 3.37462,2.4136 5.7583,3.65972 0.0197,0.009 0.0392,0.0182 0.0589,0.0274 -2.80263,-0.12918 -5.60911,-0.66243 -8.40207,-1.73943 -4.26469,-2.24536 -11.82188,-6.06431 -15.50293,-8.15454 8.47593,6.80253 18.26672,8.9971 6.165,5.51594 -9.60789,-4.52157 -15.75703,-13.72474 -20.87315,-22.595 -0.95144,-10.41979 -0.77161,-22.66588 5.93453,-31.16709 3.17051,-3.40218 3.24718,-8.57883 0.20774,-12.10624 5.93418,10.64354 -5.76177,11.76857 -8.789132,26.86761 -1.219387,4.19144 4.666322,-13.10448 2.361092,-2.46031 -2.370923,5.7473 -3.899544,12.47199 -3.237525,18.71358 v 0.001 c 0.582638,5.49115 2.861025,10.60861 7.754045,14.35674 9.96274,10.4324 24.94518,15.26138 38.91959,15.21148 6.15085,-0.64825 9.46328,-1.68626 13.7666,-3.70158 1.88565,-0.88308 3.5867,-2.17381 5.10817,-3.5953 0.8331,-0.77836 1.54404,-1.6937 2.15392,-2.65699 0.75172,-1.18733 1.78252,-2.39586 1.82472,-3.80052 0.0912,-3.03594 -1.16124,-6.96778 -3.44364,-8.43616 1.8071,3.22835 0.72029,4.57417 0.54002,6.86122 -0.17124,2.17254 -0.11867,4.69438 -1.52776,6.35682 -2.552,3.01082 -10.90382,4.61586 -10.90382,4.61586 0,0 4.1934,-2.39223 6.04079,-3.92685 0.9475,-0.78708 1.89752,-1.63035 2.54806,-2.67632 0.73279,-1.17821 1.37638,-2.52108 1.43495,-3.90734 0.0582,-1.37649 -0.62587,-2.68987 -1.09252,-3.98616 -0.4498,-1.24948 -1.21432,-2.3731 -1.63751,-3.63185 -0.78302,-2.32902 -2.12272,-4.58118 -1.64514,-7.18543 -1.11386,1.26846 -0.60238,1.45928 -0.70548,3.00769 -0.0261,0.39186 -0.0886,0.80065 -0.0398,1.19682 0.10195,0.82776 0.59022,1.42401 0.68746,2.40576 0.22508,2.27214 -0.0213,4.64038 -0.73047,6.81073 -0.80193,2.4543 -1.95155,4.9877 -3.88083,6.70367 -1.13471,1.00926 -1.89099,1.16106 -4.1821,1.80708 2.08366,-2.02866 3.28547,-3.31285 3.98322,-5.45291 0.75081,-2.30278 0.4029,-4.87857 -0.004,-7.26624 -0.18435,-1.08202 -0.43533,-2.2257 -1.08873,-3.10764 -0.31944,-0.43116 -1.10825,-0.88741 -1.2984,-0.95168 -1.22886,-0.41536 -2.59064,-2.10877 -1.77508,-3.46283 0.22828,-0.4966 1.27887,-2.29828 1.65519,-2.66909 3.66693,-2.89732 10.34568,-4.79749 10.74302,-9.57875 0.80395,-9.67401 -16.23192,-13.20547 -18.2392,-22.703 -0.81411,-3.85195 -1.01633,-7.03551 3.03909,-11.41326 z m -2.18746,7.98251 c 0.0724,0.64067 0.47321,1.9682 0.51159,1.97869 h 5.2e-4 l 5.2e-4,-5.2e-4 5.1e-4,-5.1e-4 c 0.0117,-0.0342 -0.11065,-0.55328 -0.51314,-1.97766 z m 6.25801,9.12812 c 0.90059,0.85445 1.82643,1.68206 2.76004,2.50011 0.21513,0.18384 0.18315,0.16216 0.37672,0.32814 -1.12128,-0.99316 -2.06337,-1.76572 -3.13676,-2.82825 z m 3.13676,2.82825 c 2.90286,2.57118 4.92014,4.21909 0,0 z m 10.388,16.9106 -0.93586,1.67845 z m -9.28987,0.31781 c -4.7899,0.35846 -19.00551,7.64722 -6.47093,2.99878 1.84013,-1.57252 4.15797,-2.41451 6.47093,-2.99878 z m 8.1566,1.58957 c -187.821606,-287.878088 -187.821606,-287.878088 0,0 z m -0.75602,0.87436 c -0.77661,0.68902 -1.13498,0.92867 -1.7317,1.35385 -1.09293,0.77872 -2.16497,1.21771 -3.37939,2.18811 1.5501,-0.74293 2.11359,-0.93231 3.04767,-1.59812 0.76947,-0.54848 1.51026,-1.12667 2.06342,-1.94384 z m -56.47046,3.56464 0.31781,0.41755 z m -1.00045,0.40721 c 0.13969,0.47772 0.32495,0.95262 0.54828,1.42472 -0.20257,-0.49805 -0.38611,-0.97501 -0.54828,-1.42472 z m 0.54828,1.42472 c 2.47091,6.0751 7.79412,15.26719 12.23337,15.87035 -0.51602,-4.4287 -9.41586,-9.91448 -12.23337,-15.87035 z m 2.5461,0.74724 c 1.21994,1.35721 8.81518,9.44645 0,0 z" /><path
       id="path89"
       style="display:inline;fill:#fc9d06"
       d="m 146.07306,187.24876 c -3.43225,2.32109 -5.24027,6.80185 -4.35891,10.83087 1.50991,6.1516 6.75676,10.02406 11.35745,13.84463 2.5686,2.47049 4.29586,4.23392 4.35828,6.97468 0.0532,2.33448 -1.28617,4.45501 -3.43792,6.10364 4.27712,-1.02759 4.62175,-7.48358 2.40834,-9.93629 -4.09329,-5.42848 -11.31648,-8.06814 -13.75804,-14.80799 -1.83031,-4.02138 -0.80109,-6.99796 1.81901,-10.90889 -0.86298,1.54614 -1.34006,4.73041 -1.02164,5.4932 0.24296,-2.10837 2.18331,-5.71061 2.63343,-7.59385 z m -38.40024,2.79105 c 0.88375,3.3136 1.09082,7.84408 -0.0811,9.32191 0.73587,-0.74414 0.68641,-1.22961 0.98598,-2.04535 0.37244,-1.02819 0.49588,-2.13599 0.37931,-3.22255 -0.0136,-1.79158 -1.28419,-4.05401 -1.28419,-4.05401 z m 35.76681,4.80332 c 0.1347,4.45307 3.97143,7.50497 6.76548,10.52081 4.6143,4.56015 10.66308,8.12383 13.45654,14.20533 0.91758,3.40193 -1.03111,6.89044 -3.50186,9.21244 3.46014,-2.46349 4.2696,-5.3181 3.8052,-8.46882 -0.51833,-4.21959 -6.45643,-8.56864 -10.36009,-12.09693 -3.90996,-3.6438 -8.75645,-7.19404 -10.08259,-12.65246 z m -41.21095,16.95817 c -0.27402,0.95998 -0.48792,1.93675 -0.78755,2.88923 -2.382913,6.09192 -4.609437,12.80267 -2.67374,19.35231 1.34447,4.05311 3.44772,7.92038 6.21047,11.159 3.3781,3.95996 7.70474,7.16205 12.27718,9.64914 1.8442,1.00312 3.29349,1.67716 5.95778,2.04225 -10.57019,-4.87108 -10.20922,-5.77587 -14.31075,-9.86916 -3.29195,-3.28535 -5.83784,-7.32242 -7.94422,-11.47011 -2.003195,-5.88894 -2.039254,-12.40743 0.0791,-18.2702 0.75957,-1.6992 1.2197,-5.061 1.19173,-5.48246 z m 56.68836,7.0008 c 1.02053,5.29068 -1.59958,6.5156 -4.73491,7.61533 -5.98889,2.44885 -12.34274,4.89848 -16.99535,9.54877 -2.4565,3.95519 3.88181,5.35405 6.48384,6.3531 2.95283,1.1002 5.58894,4.41558 4.36945,7.98081 -0.81714,1.79299 -0.79688,2.17229 -2.01662,3.62934 4.49017,-1.9918 4.91335,-6.44691 4.8302,-9.03873 -0.0523,-1.62875 -0.33736,-1.79501 -1.03393,-3.10218 1.23785,1.03384 5.65823,3.76218 5.51482,4.89845 1.18967,4.16433 -3.37832,6.69272 -6.66316,7.75405 -1.64605,0.5871 -5.53574,1.3545 -1.65158,1.03767 3.50701,-0.0949 7.25248,0.25526 10.1167,-2.20349 2.89564,-1.67368 5.62155,-5.5168 2.913,-8.56537 -3.3337,-3.52332 -8.6469,-3.5954 -12.47676,-6.28127 -3.21012,-3.54644 0.70983,-7.39959 4.01112,-8.91573 3.05245,-1.90449 6.30361,-3.04391 7.6259,-5.99447 0.64415,-1.43738 -0.29272,-4.71628 -0.29272,-4.71628 z m -0.11923,10.95327 c -3.48092,1.46337 -7.67936,2.42623 -6.36673,6.0192 -0.96256,-3.44635 4.25475,-4.44722 6.36673,-6.0192 z m -4.43407,7.74251 c -0.59217,-0.27132 -0.83771,-0.54679 -1.59419,-1.13009 0.36229,0.67052 1.42753,1.59339 2.05331,1.96865 0.43544,0.26112 1.37431,0.6304 2.64196,0.78312 0.21687,-0.70031 -0.10252,-2.61808 -0.32683,-3.41958 -0.34639,-1.15732 0.25834,-3.72704 1.15766,-4.27926 -2.41424,0.72595 -1.38859,5.22012 -1.85305,6.59166 -0.20068,0.59263 -1.42988,-0.21715 -2.07886,-0.5145 z m 7.57361,-2.1962 c 0.29405,2.66885 0.88246,3.30256 1.82822,4.68766 0.58167,0.85189 1.59148,1.32508 2.27591,2.09684 0.90107,1.01605 1.91875,2.33882 2.38267,3.30477 -0.11523,-0.26045 -0.14801,-0.74376 -0.30759,-1.08365 -1.54727,-3.29541 -5.80984,-5.24651 -6.17921,-9.00562 z m -23.95973,5.79876 c 2.13936,4.9107 4.41718,6.05186 -2.72819,11.66783 1.22169,-0.25925 10.1252,-3.92475 2.72819,-11.66783 z m 26.57986,4.40011 c -0.42051,3.58499 -3.80106,7.32747 -7.01845,9.49653 4.05046,-1.94829 5.43297,-1.22871 -0.13217,1.29393 4.36651,-1.33153 4.45749,-1.67093 5.91315,-3.89029 1.19575,-2.00763 1.55891,-3.38282 1.23747,-6.90017 z m -48.64373,4.34121 c 2.15087,3.23895 3.8184,2.07513 7.12912,3.80957 1.86712,0.97817 3.74651,1.93278 5.61558,2.90721 2.75817,1.43795 4.48101,2.93223 9.46536,3.04862 -6.70719,-1.61067 -8.50321,-4.41942 -12.9027,-6.30662 -3.04172,-1.30476 -4.83549,-1.03862 -9.30736,-3.45878 z" /></g></svg>
