<?xml version="1.0" encoding="UTF-8" standalone="no"?>
<!-- Created with Inkscape (http://www.inkscape.org/) -->

<svg
   width="79.981522mm"
   height="90.155945mm"
   viewBox="0 0 79.981522 90.155944"
   version="1.1"
   id="svg1"
   xml:space="preserve"
   xmlns="http://www.w3.org/2000/svg"
   xmlns:svg="http://www.w3.org/2000/svg"><defs
     id="defs1" /><g
     id="layer1"
     transform="translate(-75.297395,-173.75077)"
     style="display:inline"><path
       id="path95"
       style="display:inline;fill:#e82501"
       d="m 135.68995,173.75077 c -0.36539,1.07426 -4.59104,5.3414 -5.08781,8.6492 -0.87372,5.81786 5.05552,11.3674 4.08542,17.16997 -0.81366,4.86681 -6.9494,7.66626 -7.92456,12.5033 -0.29751,1.47575 0.50214,2.96872 0.75086,4.45348 0.77509,4.62694 6.8016,12.52648 2.31067,13.88325 -7.47273,2.2576 -9.45343,-16.59503 -9.58912,-21.36575 -5.91243,11.54812 0.99119,13.84337 -0.24816,20.59663 -0.42717,2.32765 -1.01535,4.77773 -2.44076,6.66681 -1.63557,2.16761 -3.13453,1.07673 -6.58758,4.79233 0,0 -0.64473,-5.01173 -1.42896,-7.3976 -0.49833,-1.51607 -1.81128,-2.74603 -2.05798,-4.32272 -0.48736,-3.11486 0.86055,-6.2466 1.26288,-9.3736 0.37887,-2.94472 -0.12782,-6.21397 1.05876,-8.84223 2.25315,-4.99072 6.89099,-5.27722 12.31696,-10.86959 4.04856,-4.17272 2.07937,-10.55452 -2.52935,-18.55848 1.38831,5.65746 3.50826,8.52596 2.03707,12.47374 -2.46485,6.61413 -10.93117,8.93644 -16.25744,13.56818 -0.30377,0.26416 -0.60532,0.5313 -0.89504,0.8108 -0.47239,0.45572 -1.02667,0.85373 -1.37356,1.41095 -0.89881,1.44379 -1.33103,3.14913 -1.70956,4.80718 -0.34834,1.52581 -0.40729,3.10607 -0.50248,4.66825 -0.0767,1.25801 -0.29931,3.1584 -0.0548,3.78064 0.16183,-0.51877 0.65718,-3.22969 1.44695,-4.64674 0.32219,-0.57809 0.90912,-0.96636 1.30173,-1.49914 0.64992,-0.88194 1.45775,-1.32408 1.73219,-2.79311 0.26313,-1.31564 0.2811,-0.44992 -0.0579,0.89294 -0.16962,0.67184 -0.4067,1.41481 -0.70125,2.19987 -2.1e-4,5.5e-4 -3.1e-4,9.9e-4 -5.1e-4,0.002 -0.0575,0.15324 -0.14234,0.3223 -0.20413,0.47852 -0.57187,1.44602 -1.29864,2.99647 -2.16834,4.50774 -0.28788,0.50025 -1.77663,4.86686 -1.70516,7.39579 0.11067,3.91574 2.20714,9.99603 3.2828,11.28408 -3.09762,-0.37333 -14.556649,-15.98866 -15.082897,-25.99188 -0.250291,-4.75766 5.806446,-8.28239 5.836934,-13.04654 0.03108,-4.85699 -0.662952,-10.52576 -5.779974,-13.37588 2.0679,2.81114 3.862112,6.61094 3.483939,10.17634 -0.410098,3.86638 -4.290281,6.50973 -6.008935,9.99732 -1.133246,2.29965 -2.901431,4.46299 -2.81371,7.15798 0.174902,2.986 2.240305,6.26622 3.336859,8.32984 -0.289591,-0.10956 -1.079778,-0.57531 -1.560148,-0.79868 0.649525,1.00207 0.901554,2.44264 1.392513,3.57453 2.122924,4.69294 3.052981,5.71921 1.292165,3.97052 -1.760816,-1.74868 -6.129823,-6.63614 -6.171437,-6.75921 -0.345371,1.15011 0.719572,3.03631 1.377065,4.43915 0.381301,0.81355 1.034949,1.56182 1.467611,2.26084 0.709271,1.14591 0.755181,1.37035 -0.31983,0.50489 -1.195262,-0.9623 -2.817153,-2.17455 -3.871598,-3.58118 -1.287624,-1.71769 -2.8011,-3.61893 -2.871661,-5.7645 -0.168851,-5.13427 7.740043,-11.72384 5.950612,-14.21594 0.665943,4.21187 -4.935357,6.39122 -6.850194,9.92598 -0.425935,0.78627 -0.84364,1.60515 -1.017075,2.4824 -0.307897,1.55736 -0.34142,3.21057 -0.0072,4.7625 0.19266,0.89474 0.930414,1.60833 1.133865,2.50068 1.480529,6.49366 -1.049394,13.48695 0.452171,19.97578 0.91673,3.96153 1.880536,8.60551 5.109402,11.07706 7.937736,6.07597 19.577733,4.627 29.566453,5.01499 7.59703,0.29509 15.63354,0.70784 22.71519,-2.05841 4.98794,-1.9484 9.3941,-5.60249 12.74594,-9.77874 3.87659,-4.83009 6.7418,-9.98432 7.85116,-16.8398 0.2775,-1.995 0.15615,-4.0311 0.0482,-6.04241 -0.13325,-2.02657 0.0584,-4.16925 -0.72165,-6.04136 -2.59805,-6.23566 -8.45076,-10.54191 -12.59515,-15.87646 -0.95856,-1.23383 -2.42777,-2.2229 -2.83792,-3.73054 -0.18828,-0.69208 -0.13754,-1.47672 0.25564,-2.13645 -0.0717,0.01 -1.60849,1.68574 -0.74747,4.08856 0.95504,2.66505 3.47399,5.26747 4.11913,8.2827 0.0857,0.40063 0.20169,2.37103 0.22165,4.76999 0.0199,2.39896 -3.09255,8.86296 -4.79781,13.23463 -0.8385,2.14961 -0.41114,6.85497 -2.67039,6.38625 -1.54281,-0.32008 -0.2143,-3.17531 0.0618,-4.72659 0.36027,-2.02406 1.70453,-3.78989 2.05228,-5.81613 0.47157,-2.74767 0.48641,-6.27334 0.006,-8.36354 -0.62035,1.69834 -2.25145,4.16175 -3.34354,3.10358 -2.28509,-2.21413 -2.70755,-6.90321 -2.71219,-11.07754 -0.004,-3.53508 4.92824,-5.52547 5.62355,-8.9915 1.52271,-7.59048 -7.40794,-14.58664 -3.76775,-22.91746 0.33593,-1.38304 3.02044,-4.11303 2.38612,-5.41246 z m -30.76926,38.41857 c 0.94591,0.66254 -0.68278,3.21981 -1.8071,2.95597 -0.2026,-0.0475 -0.11476,-0.42266 -0.0547,-0.6219 0.28725,-0.95287 1.04665,-2.90503 1.8618,-2.33407 z m 17.06592,19.10734 0.92655,0.98289 c 0.82643,0.87668 2.17292,3.50255 2.39624,4.95835 0.0614,0.39998 0.08,0.81263 0.0594,1.23093 -0.98188,-0.55896 -6.06004,-0.271 -9.01134,1.65055 1.17011,-2.03924 5.80319,-7.05468 5.62915,-8.82272 z m 11.9466,13.2057 c -0.40862,-0.0904 -0.81305,-0.0429 -2.14348,-2.74089 -2.15477,-4.3696 2.47673,1.6496 2.14348,2.74089 z" /><path
       id="path97"
       style="display:inline;fill:#f75f04"
       d="m 131.53428,179.20381 c -1.21531,2.02549 -1.08594,4.29644 -0.99375,5.08149 0.29421,2.50515 0.62366,3.21774 2.39515,7.17805 6.48091,14.48862 -7.35949,8.57872 -6.50451,22.32629 0.15478,2.48884 1.69041,4.70236 2.27642,7.12618 0.58174,2.40616 2.84442,5.45598 1.22156,7.32531 -1.26062,1.45209 -4.14274,0.88886 -5.76714,-0.14024 -2.87564,-1.82179 -3.91054,-5.7884 -4.58586,-9.12489 -0.65821,-3.25193 -1.02296,-6.96621 0.65926,-9.93178 -1.69713,1.84296 -2.21631,4.74174 -2.50573,7.29721 -0.21046,1.85829 0.10646,3.77271 0.58924,5.57949 1.79567,6.72026 9.43639,14.75137 8.45171,19.07997 -4.47117,10.84635 -0.73585,10.97782 3.48868,1.16117 0.2479,-0.57604 1.20577,0.21533 1.70274,0.54405 0.75857,0.50177 0.88077,1.93869 1.78119,2.06693 0.25651,0.0365 0.52284,-0.19894 0.65164,-0.42375 0.16279,-0.28414 0.15862,-0.68224 0.0455,-0.98134 -0.29509,-0.77997 -2.89139,-3.5574 -3.32538,-3.5574 -0.20091,0 -0.42798,-0.32743 -0.50488,-0.72761 -0.0769,-0.40019 -0.39145,-1.44197 -0.69918,-2.3151 -0.30774,-0.87312 -0.61375,-2.18282 -0.67955,-2.91042 -0.0399,-0.44097 -0.24132,-0.89727 -0.11937,-1.32292 0.12189,-0.42543 0.5343,-0.70555 0.8015,-1.05833 0.44088,-0.58209 1.34033,-1.75019 1.99885,-2.59571 1.13938,-1.46291 2.00246,-3.55014 2.00246,-4.84363 0,-1.99381 -3.38255,-3.55114 -4.24832,-5.78001 -1.00827,-2.59573 -1.50348,-5.58905 -0.89352,-8.3061 0.92485,-4.11975 5.92333,-6.6402 6.60811,-10.80659 0.45741,-2.78302 -0.48475,-5.3613 -1.87141,-8.25153 -1.07761,-1.69318 -1.61275,-3.50559 -2.00298,-5.37848 -0.27074,-1.2994 -0.52393,-2.68487 -0.21629,-3.97603 0.2954,-1.2398 1.32406,-2.53005 1.90698,-3.31402 -1.57391,3.43515 -0.79361,6.40774 -0.1138,9.50124 2.48152,5.79469 4.69768,9.34547 2.61079,16.09516 -0.9402,2.5856 -4.6277,3.68753 -5.25219,6.36695 -0.79826,3.42503 0.0144,6.53657 2.42363,10.26831 -1.27876,-4.97502 -1.96356,-6.92501 -0.93777,-10.1718 0.60426,-1.91257 2.80631,-2.90205 3.89466,-4.58685 0.85144,-1.31807 1.68909,-2.71859 2.01835,-4.25281 0.38628,-1.79987 0.32396,-3.73297 -0.11212,-5.52143 -0.82981,-3.40327 -3.93692,-5.99548 -4.64675,-9.42578 -0.5269,-2.54627 -0.38364,-5.2193 0.38924,-7.79091 0.48023,-1.74489 1.60583,-3.37893 2.21846,-4.95538 0,0 -2.97986,3.49338 -4.15567,5.45304 z m -39.696626,16.94175 c 0.269067,0.86575 0.535001,1.80245 0.371865,2.69424 -0.46809,2.55885 -1.630196,4.12055 -3.734656,6.85229 -2.50915,3.25706 -3.859551,5.50838 -4.579158,7.48038 -1.531039,4.19557 0.419575,7.61113 2.087837,10.1459 0.183922,0.27945 0.746897,0.56686 0.551905,0.8387 -0.108746,0.1516 -0.361065,-0.0944 -0.541569,-0.14159 -0.698777,-0.18273 -0.731562,-0.32157 0.644922,2.72128 0.652503,1.44242 1.188225,2.89465 1.190625,3.22719 0,0 0.169907,0.48088 0.01395,0.5979 -0.03466,-0.007 -0.06848,-0.0124 -0.09974,-0.0124 -0.03438,0 -0.07445,-0.007 -0.117822,-0.0181 -0.09202,-0.0663 -0.184943,-0.17324 -0.276469,-0.22221 -0.970995,-0.51966 -3.198394,-2.71249 -3.927409,-3.86643 -0.411386,-0.65117 -0.837056,-1.18416 -0.946196,-1.18442 -0.737101,-0.002 0.315223,2.9581 2.04587,5.75417 0.940791,1.51997 -0.589472,1.60655 0.944633,3.85136 0.893197,1.30699 1.450684,1.49368 1.975074,0.66095 0.0942,-0.14959 0.27233,-0.27259 0.28267,-0.44907 0.02088,-0.35651 -0.307756,-0.64452 -0.461471,-0.96687 -0.253633,-0.53188 -1.115575,-1.96114 -1.915645,-3.17603 -2.204434,-3.3474 -3.036497,-5.66933 -1.144633,-3.19412 0.909039,1.18933 3.329599,3.13059 4.115511,3.30057 0.14325,0.031 0.321756,0.19242 0.429431,0.093 0.267941,-0.24743 -0.09673,-0.72322 -0.145211,-1.08469 -0.08,-0.59643 -0.515947,-1.87627 -0.968933,-2.84427 -0.905739,-1.93551 -0.909255,-2.29903 -0.01344,-1.36788 1.024047,1.06443 2.086264,2.90214 2.904733,5.0245 1.109505,2.87704 1.040558,3.9137 -0.365353,5.4715 -0.187418,0.20767 -0.723578,0.3947 -0.562239,0.62322 0.216028,0.30598 0.691648,-0.28655 1.037662,-0.42995 2.40313,-0.99597 3.155082,-3.08955 2.141472,-5.96242 -0.130798,-0.37072 -0.665495,-0.83 -0.392224,-1.1126 0.07927,-0.082 0.217328,0.0691 0.326078,0.10336 0.179434,0.0566 0.713548,0.6743 1.186491,1.37304 0.286634,0.42348 0.710946,0.78153 0.859896,1.27072 0.144814,0.4756 -0.0043,0.99424 -0.0062,1.49139 -0.0072,1.84022 -0.437793,2.81547 -2.82205,6.38617 -2.291983,3.43252 -2.544011,3.90623 -2.348693,4.41523 0.05182,0.13504 0.02929,0.33455 0.155546,0.40515 0.253713,0.14182 0.571094,-0.10722 0.856795,-0.16072 0.2857,-0.0535 0.589511,-0.27317 0.857312,-0.16019 0.463381,0.1955 0.557417,0.83761 0.836125,1.25625 0.459868,0.69076 0.91253,1.51813 1.00614,1.83916 0.235564,0.80784 1.637467,1.93012 2.411222,1.93012 0.808828,0 0.805533,-0.26406 -0.01964,-1.48001 -0.906064,-1.33516 -1.305265,-2.8265 -1.315165,-4.91495 -0.0028,-0.58829 -0.141598,-1.19228 -0.0083,-1.76527 0.269083,-1.15639 1.058331,-2.12559 1.5875,-3.18843 0.585111,-1.17521 1.128953,-2.20855 1.447973,-2.76366 -0.537027,-2.43574 -4.833129,-8.29962 -6.678145,-10.62622 -2.424402,-3.05721 -3.479525,-4.99202 -4.039547,-7.40679 -0.13281,-0.57267 -0.378005,-1.13021 -0.398425,-1.71772 -0.02048,-0.58948 0.186003,-1.16473 0.279053,-1.74718 0.274017,-1.71527 1.245909,-3.97231 2.576587,-5.9831 0.369626,-0.55854 0.770734,-1.17874 1.553393,-2.41587 -1.486373,0.26718 -6.164679,7.3295 -5.946408,10.77402 0.03089,0.72927 -0.09091,1.48109 0.09302,2.18746 0.222074,0.85288 0.793752,1.5742 1.190625,2.3611 1.446906,2.86887 1.516539,3.07095 0.772046,2.22829 -0.32142,-0.3638 -1.013216,-1.55444 -1.537891,-2.64584 -0.317987,-0.66146 -0.790878,-1.26879 -0.953947,-1.98437 -0.187731,-0.8238 0,-1.68981 0,-2.53473 0,-0.84492 -0.198839,-1.71354 0,-2.53473 0.174365,-0.72011 0.67754,-1.31777 1.016475,-1.97662 0.559244,-1.08711 1.636447,-2.74447 2.393653,-3.68298 2.443423,-3.02847 2.617379,-3.68676 3.720573,-5.65511 0.50066,-0.8933 1.096364,-1.77784 1.307878,-2.77978 0.17774,-0.84195 0.08185,-1.73225 -0.0611,-2.58081 -0.193553,-1.14893 -0.626759,-2.24976 -1.066701,-3.32864 -0.548185,-1.34432 -1.56441,-2.70827 -1.950193,-3.89437 1.110927,1.57347 2.005443,1.57705 3.776474,4.76003 -0.62361,-2.69376 -3.737189,-5.5582 -5.932676,-6.77399 0,0 3.374305,5.54715 4.328234,8.61649 z m 30.083286,-9.80484 c 0.33746,2.41023 1.34276,4.63854 1.1451,6.99195 -0.22915,2.72839 -0.95552,6.96158 -2.66103,7.77102 4.85332,-0.86181 3.84011,-9.15017 1.51593,-14.76297 z m 17.33719,14.84956 c -2.57054,4.0241 3.01431,7.6223 3.17827,11.64146 0.22495,5.514 -0.39951,12.04949 -3.04491,16.27335 2.27892,-2.98072 3.34313,-3.61971 3.60792,-4.35213 2.44165,-6.75379 0.99014,-13.01726 -1.08167,-16.61391 5.94351,4.94819 8.26474,8.17713 11.62732,12.94515 -3.06815,-5.46706 -5.22231,-7.46948 -8.04842,-10.51872 -2.40324,-2.59301 -7.98679,-4.01018 -6.23851,-9.3752 z m -25.56155,2.77064 c -2.05607,1.07239 -4.23431,2.15443 -5.92884,3.63949 -2.95862,2.62622 -4.18101,2.59052 -5.06532,6.28024 -0.18765,1.00995 -0.42605,2.06974 -0.65681,3.11712 0.0842,-0.24099 1.5634,-4.42983 2.77399,-4.8302 1.45255,0.25219 0.41073,4.91944 -2.64559,10.23039 -0.28788,0.50025 -0.97927,1.82932 -0.91003,2.81211 0.12096,1.71698 0.66002,2.46392 2.26295,4.64143 0.2147,-4.10996 1.53977,-4.52976 2.28071,-6.8042 0.62092,-1.90604 1.49193,-3.75517 1.8141,-5.73374 0.32411,-1.99048 -0.64376,-4.17442 0.0992,-6.04925 0.72782,-1.83656 2.47557,-3.11325 3.98839,-4.38371 3.14256,-2.6391 7.718,-2.8042 10.40119,-6.58635 -2.10315,1.14857 -5.70135,2.25184 -8.41394,3.66667 z M 78.7847,230.29155 c -2.552014,-9.23867 -2.733319,-8.09568 -1.679482,-11.99204 0.757187,-2.79955 4.002018,-4.28444 5.385365,-6.8334 0.483053,-0.89008 1.030574,-1.20598 0.975911,-2.87711 -1.74472,2.85382 -7.783794,8.59184 -8.081914,13.96065 -0.156268,2.81421 0.284343,3.57113 3.40012,7.7419 z m 64.56018,-20.18426 c 0.54942,1.15775 1.34107,2.44902 1.68807,3.78673 0.54509,2.10138 0.73686,4.32261 0.57409,6.48743 -0.25695,3.41736 -1.62432,4.84732 -2.79518,7.10809 -0.2882,0.55648 -1.51139,1.64063 -1.03198,1.57148 1.84418,-0.266 3.49925,-1.28015 5.24464,-1.93166 1.07922,-0.40285 2.78548,-0.16092 3.23236,-1.22267 2.22999,-5.29823 -3.78648,-12.30884 -6.912,-15.7994 z m -58.347173,6.17988 c 0.02717,0.4039 0.08569,0.83551 0.163815,1.25522 -0.07813,-0.41972 -0.13716,-0.85131 -0.164331,-1.25522 -0.307829,-4.57685 -0.308689,-4.5971 5.16e-4,0 z m 0.163402,1.25709 c 0.117173,0.62938 0.278021,1.23204 0.441316,1.67638 0.08167,0.22223 0.164045,0.40493 0.241846,0.53123 -0.07785,-0.12629 -0.160112,-0.30884 -0.241846,-0.53123 -0.163307,-0.44435 -0.324133,-1.04696 -0.441316,-1.67638 z m 0.795817,2.35278 c 0.018,0.0165 0.03567,0.029 0.05271,0.0372 -0.01712,-0.008 -0.03462,-0.0207 -0.05271,-0.0372 z m 49.404974,5.963 c -0.84986,1.64022 -1.45007,2.69913 -3.07189,4.61266 -1.49817,1.72292 -2.07973,2.81197 -1.70274,3.18895 0.0969,0.0969 0.40908,0.0309 0.6935,-0.14676 0.6211,-0.38788 0.63147,-0.33358 0.12196,0.64337 -0.0473,0.0906 -0.0901,0.17795 -0.12868,0.262 0.0208,-0.0432 0.0433,-0.0876 0.0672,-0.13384 -0.024,0.0465 -0.0462,0.0915 -0.0672,0.13487 -0.0919,0.20054 -0.15916,0.38211 -0.20153,0.54312 -0.14865,0.5653 0.007,0.87799 0.46405,0.87799 0.17743,0 0.41714,-0.135 0.53227,0 0.22008,0.25807 -0.10712,0.66968 -0.16072,1.00459 -0.0536,0.33491 -0.27604,0.68614 -0.16071,1.0051 0.15733,0.43511 0.69655,0.60862 1.0449,0.91312 0.52443,0.45843 1.0106,0.88354 1.46089,1.27848 -0.51419,-1.16923 -0.8817,-2.33166 -0.91209,-3.44475 -0.0146,-0.0452 -0.0249,-0.0918 -0.0289,-0.14004 -0.01,-0.11383 0.006,-0.22428 0.0367,-0.33332 -0.006,0.0965 -0.009,0.19324 -0.01,0.29042 6.6e-4,-0.0976 0.004,-0.19479 0.0103,-0.29145 l -5.2e-4,5.2e-4 c 0,-3.6e-4 -2e-5,-7.3e-4 0,-0.001 h 5.2e-4 c 0.0215,-0.33687 0.0771,-0.66857 0.1726,-0.99374 0.18926,-0.73892 0.57567,-1.42077 1.08675,-2.03605 3.3e-4,-2.2e-4 7.2e-4,-2.9e-4 10e-4,-5.1e-4 0.14009,-0.16861 0.28921,-0.33245 0.44648,-0.49093 -0.10042,0.0532 -0.20193,0.10649 -0.30541,0.15916 -0.46169,0.23503 -1.39158,0.90566 -2.06654,1.48983 -1.36999,1.18576 -1.45934,1.22662 -1.45934,0.66921 0,-0.69264 1.43372,-2.04447 2.26136,-2.13217 1.24739,-0.13217 2.55283,-1.64125 3.39669,-3.62148 -0.28134,0.62003 -0.65095,1.18936 -1.13378,1.73788 -0.19031,0.21622 -0.38714,0.4197 -0.57309,0.59686 -0.39741,0.37859 -0.74704,0.63614 -0.88728,0.63614 -0.54964,0 -0.47214,-0.19833 0.53691,-1.37718 1.37238,-1.60331 3.82574,-6.41994 2.16245,-9.11116 -0.20676,1.41227 -0.934,2.87436 -1.62611,4.21011 z m 1.74782,2.73209 c 0.3239,-0.89178 0.35062,-1.01714 0,0 z M 82.55916,225.7985 c 0.01538,0.003 0.03222,0.01 0.05013,0.0181 -0.0179,-0.008 -0.03474,-0.0146 -0.05013,-0.0181 z m 0.389641,0.30489 c 0.162902,0.17681 0.365011,0.43381 0.608748,0.78238 0.01963,0.0281 0.05333,0.0614 0.0739,0.0899 -0.02054,-0.0284 -0.05482,-0.0619 -0.07441,-0.0899 -0.243585,-0.34836 -0.445382,-0.60558 -0.608231,-0.78238 z m 1.588046,1.96296 c 0.142415,0.15225 0.300158,0.29138 0.450619,0.4408 -0.151768,-0.15067 -0.307036,-0.28725 -0.450619,-0.4408 z m 1.191659,1.15547 c 0.167209,0.14791 0.315544,0.25389 0.476457,0.38447 -0.163229,-0.13236 -0.306742,-0.23426 -0.476457,-0.38447 z m 1.171505,0.92711 c 0.06835,0.0461 0.131475,0.0846 0.19482,0.1235 -0.06408,-0.0393 -0.12561,-0.0768 -0.19482,-0.1235 z m 0.488342,0.29248 c 0.01526,0.007 0.03179,0.0167 0.04651,0.0233 -0.01472,-0.007 -0.03124,-0.0159 -0.04651,-0.0233 z m 0.150378,0.0635 c 0.02672,0.01 0.05538,0.0215 0.07958,0.0279 -0.02428,-0.006 -0.05277,-0.0183 -0.07958,-0.0279 z m 0.411862,0.0842 c 0.02053,0.004 0.04093,0.007 0.06046,0.009 -0.01972,-0.002 -0.03973,-0.005 -0.06046,-0.009 z m 2.792594,0.13126 c 0.476986,1.2249 0.798011,2.42408 0.803052,3.18792 0.0023,0.34966 -0.266202,0.89641 -0.136943,1.15393 0.0089,0.0178 0.01964,0.0342 0.03256,0.0491 -0.01298,-0.0148 -0.02359,-0.0313 -0.03256,-0.0491 -0.129989,-0.25727 0.138731,-0.80451 0.136426,-1.15445 -0.005,-0.76371 -0.325685,-1.96272 -0.802535,-3.1874 z m 42.104403,0.16381 c -0.005,0.017 -0.009,0.0328 -0.0114,0.047 0.002,-0.0143 0.006,-0.0299 0.0114,-0.047 z m 1.85467,1.09658 c -0.46337,0.42314 -0.88033,0.66912 -1.13688,0.60203 -0.37615,-0.0984 -0.94363,0.19193 -1.44591,0.67386 0.50234,-0.48209 1.0697,-0.77276 1.44591,-0.67438 0.25638,0.067 0.67381,-0.17881 1.13688,-0.60151 z m -49.139635,0.88005 c 0.03787,0.0174 0.06958,0.0278 0.09508,0.0315 -0.0256,-0.004 -0.05696,-0.014 -0.09508,-0.0315 z m 1.676899,5.15059 c -0.204212,-3.2e-4 -0.659127,0.14744 -1.367875,0.46095 -0.407243,0.18014 -1.877247,1.41831 -2.257222,2.53576 -0.263715,0.77554 1.342888,-1.00644 2.075326,-1.50068 1.415776,-0.95535 1.939635,-1.49543 1.549776,-1.49603 z m -5.941754,7.50238 c -0.228427,0.60204 0.08208,1.32244 0.377754,1.89446 0.309024,0.59783 0.714162,1.45309 1.386996,1.46709 0.493846,0.0103 0.69136,-0.70694 1.06195,-1.03352 0.847118,-0.74651 2.48085,-1.21958 2.649015,-2.11108 -1.00114,0.41812 -1.446659,0.77812 -2.299682,0.86724 -2.184778,0.22836 -2.211808,-0.17878 -0.104903,-1.58233 1.810625,-1.20618 6.683313,-5.93744 6.683313,-6.48952 -2.067057,0.62946 -8.262001,3.0542 -9.754443,6.98766 z m 52.51849,-1.51573 c -0.17198,0.88616 -0.66573,0.4981 -1.48828,-1.16995 -2.2204,-4.50265 1.58892,0.65123 1.48828,1.16995 z" /><path
       id="path98"
       style="display:inline;fill:#fc9d06"
       d="m 135.68995,173.75077 c -1.10669,1.33354 -3.42425,3.8569 -4.1557,5.45301 -0.22482,0.49058 -0.54572,0.94766 -0.67438,1.47174 -0.16844,0.68613 -0.073,1.41112 -0.10956,2.11667 -0.0868,1.676 -0.009,2.91987 0.38241,4.3217 -0.085,-0.45882 -0.1067,-0.93235 -0.17828,-1.39423 -0.5774,-3.7256 1.12013,-6.45117 2.68924,-9.25422 0.46007,-0.82186 1.39126,-1.28607 1.90077,-2.09071 -1.29099,2.25068 -1.85404,2.4297 -2.34705,3.84934 -0.76872,2.21354 -1.06457,4.36211 -0.84822,6.97831 0.29838,3.60817 4.12827,8.81446 4.46485,9.9012 0.20399,0.65863 0.50884,1.29436 0.61185,1.97611 0.11863,0.78484 -7.5e-4,1.5875 -0.001,2.38125 -3e-4,0.79375 0.14766,1.60156 -0.001,2.38125 -0.10661,0.55895 -0.41812,1.05833 -0.62735,1.5875 -0.17318,0.43799 -0.27476,0.91334 -0.48266,1.33325 0.20222,-0.29008 0.38033,-0.58611 0.52917,-0.88832 0.28819,-0.58517 0.70307,-1.12347 0.86454,-1.75545 0.1753,-0.68625 0.0602,-1.41522 0.0904,-2.12287 0.12577,-2.94858 -0.41621,-4.82919 -2.74764,-9.5312 -0.65595,-1.32292 -1.53388,-2.55735 -1.96784,-3.96875 -0.2025,-0.65877 -0.18752,-1.36563 -0.28112,-2.04845 -0.47565,-3.4687 1.82795,-5.64829 2.50528,-8.53488 0.16722,-0.71263 0.14201,-0.53274 0.38329,-2.16225 z m -16.10873,7.985 c 1.26927,2.7514 1.8321,3.37438 2.33972,4.60495 1.1219,2.71969 1.24367,3.65777 1.81952,7.26079 0.37683,2.3578 -0.4522,4.67924 -1.62995,6.69301 2.27829,-2.10491 2.52278,-4.64903 2.41627,-7.16831 -0.17485,-4.13556 -3.25385,-9.46044 -4.94556,-11.39044 z m 11.82279,6.23651 c 0.34553,0.98567 0.84146,2.09247 1.53117,3.49126 2.49271,5.05536 2.9136,7.0493 2.12649,10.07122 -0.69555,2.6704 -3.5078,4.02429 -5.26472,6.03381 -0.51293,0.58667 -1.13065,1.09571 -1.54055,1.75848 -0.84541,1.36696 -1.81646,2.85554 -1.82573,4.46278 -0.006,0.98125 0.58251,1.89334 1.08314,2.7373 0.52156,0.87924 1.20343,1.67177 1.96164,2.35748 0.31334,0.28338 0.71194,0.46265 1.05058,0.709 -1.93367,-1.599 -3.65379,-3.79973 -3.45612,-6.3562 0.25457,-3.29224 5.38279,-6.75381 6.15363,-7.76335 1.4999,-1.96436 2.05192,-3.39401 2.18281,-5.65496 0.15862,-2.73937 0.22692,-2.30447 -0.0243,-3.41477 -0.6562,-2.90049 -3.21842,-6.75311 -3.97805,-8.43205 z m -39.723043,7.62657 c -0.05866,-1.45703 -5.627159,-9.96094 -0.424582,-4.95835 0.777818,0.74772 1.197601,1.68763 1.581303,2.14502 -0.470148,-2.25979 -4.196495,-5.11944 -5.328268,-5.25646 0.668955,1.85079 3.365054,6.52572 4.171547,8.06978 z m -0.791796,6.04184 c -3.811322,6.19056 -5.331036,7.09453 -6.980636,11.10367 1.987285,-2.46484 2.162282,-3.43017 3.334864,-5.08284 5.664705,-7.98403 5.912676,-8.48551 4.454104,-12.0296 0.593826,2.88967 0.251205,4.28782 -0.808332,6.00877 z m 48.368959,-0.45041 c -0.85881,0.68284 -0.42763,4.70185 0.69319,7.23082 1.54079,3.47656 4.00088,9.44186 2.27067,15.33084 -0.86012,2.92747 -2.01981,4.9662 -3.87315,6.61975 0.19071,-0.0885 2.62881,-1.32247 4.18163,-7.20624 0.22319,-0.84569 0.55689,-1.66997 0.66973,-2.53731 0.059,-3.93588 -0.0335,-6.80206 -1.50378,-10.3748 -0.55666,-1.61091 -1.46374,-3.08407 -2.04628,-4.6858 -0.16851,-0.46333 -0.29227,-0.94207 -0.41714,-1.41901 -0.0384,-0.14681 -0.0888,-0.29251 -0.10212,-0.44369 -0.0736,-0.83602 -0.0682,-1.20476 0.12722,-2.51456 z m -28.96704,4.48426 c -2.11997,1.39935 -3.98675,3.19883 -5.62911,5.13664 -0.359,0.42357 -0.59772,0.58475 -0.90589,1.39784 0.44713,-0.38326 1.12815,-0.80249 1.58853,-0.49348 0.91957,0.61723 0.30464,2.79577 0.28969,3.30988 -0.0336,1.23136 -1.10637,4.14475 -1.77378,6.18205 -0.76729,2.03135 -2.22076,4.25331 -1.1421,6.43267 0.7462,-3.49781 2.83443,-5.87224 3.70262,-8.99686 1.39085,-5.0057 -0.32275,-5.94736 0.59524,-7.70857 2.84532,-5.45886 12.96617,-8.25465 15.09423,-10.64046 -4.44393,2.85322 -8.20675,2.99559 -11.81948,5.38029 z m 28.83979,-1.9697 c 0.36831,1.19871 1.39174,1.85604 2.13196,2.74848 0.77831,0.93838 0.37309,0.6853 2.4257,2.73731 0.6789,0.6787 2.48246,2.91024 4.668,4.46582 -2.62024,-3.34445 -4.68397,-4.83289 -6.94487,-7.32456 -0.77927,-0.85881 -1.72422,-1.64968 -2.28079,-2.62705 z m -3.66613,2.1046 c -0.34163,0.31365 -0.71242,0.60347 -1.04128,0.92759 -0.95973,0.94589 -2.20471,1.7059 -3.32177,2.53938 -0.25177,0.18786 -0.51616,0.36093 -0.78031,0.53382 0.25418,-0.0968 0.50469,-0.20072 0.71934,-0.35554 1.49654,-1.07939 3.17524,-2.29097 4.42402,-3.64525 z m -52.055452,2.14562 c -0.25274,1.91014 -2.042514,3.584 -3.333162,5.09963 -1.862616,2.18729 -2.989864,3.58804 -4.030876,5.83407 0.202232,-0.35043 1.273664,-1.92031 1.915653,-2.87702 1.806478,-2.69206 6.052408,-4.91805 5.448385,-8.05668 z m 45.524062,2.91402 c -0.47293,0.37642 -0.52995,0.93092 -0.57619,1.44849 -0.036,0.40337 0.0934,0.81029 0.24184,1.19062 -0.003,-1.00629 -0.079,-1.64109 0.3344,-2.63911 z m -46.168678,0.49475 c -0.436287,0.73397 -0.780936,1.1914 -1.14978,1.7593 -0.09949,0.15299 -2.765466,3.31537 -3.58221,5.27875 -0.544465,1.30885 -1.116764,2.78991 -0.812354,4.17442 0.737853,3.35588 2.706194,7.49459 6.031673,8.35918 0.403343,0.10486 3.208223,2.75144 1.132748,-0.52917 -2.058296,-3.25346 -2.77602,-6.30911 -0.82734,-3.52226 1.003222,1.43474 3.269352,3.44716 4.070553,3.64887 -0.09266,-0.0662 -0.18636,-0.17445 -0.278536,-0.22376 -0.970995,-0.51966 -3.198394,-2.71249 -3.927409,-3.86643 -0.411386,-0.65117 -0.837056,-1.18416 -0.946196,-1.18442 -0.737101,-0.002 0.315223,2.9581 2.04587,5.75417 0.940791,1.51997 -2.735662,-1.53238 -3.73704,-2.69748 -1.45618,-1.69426 -3.011968,-3.7286 -3.061392,-5.9621 -0.08916,-4.02912 3.299698,-7.66422 5.041413,-10.98907 z m 3.418933,0.69787 c -0.642599,1.56804 -1.306899,2.34861 -1.182165,3.94434 0.124735,1.59572 1.038505,4.0066 1.038505,4.0066 0,0 -0.669297,-3.19248 -0.630454,-4.63331 0.03884,-1.44083 0.785825,-1.12999 0.774114,-3.31763 z m -0.199857,11.2567 c 0.183922,0.27945 0.746896,0.56686 0.551904,0.8387 -0.108746,0.1516 -0.361065,-0.0944 -0.541569,-0.14159 -0.698777,-0.18273 -0.731562,-0.32157 0.644922,2.72128 0.652503,1.44242 1.188225,2.89465 1.190625,3.22719 0,0 0.17019,0.482 0.01344,0.59842 0.120873,0.0249 0.252287,0.0719 0.321427,-0.0124 0.175968,-0.21465 -0.108857,-0.54432 -0.163297,-0.81649 -0.08982,-0.44908 -0.641753,-1.83722 -1.226282,-3.08457 -0.58453,-1.24736 -0.999681,-2.33039 -0.922941,-2.40709 0.19726,-0.19726 2.123696,1.71781 3.151745,3.13315 1.260085,1.7348 2.532401,5.00241 2.542481,6.52983 0.0028,0.42505 -0.394649,1.14146 0.0088,1.27537 0.203722,0.0676 0.258604,-0.34246 0.38809,-0.51366 0.230582,-0.30486 0.388607,-1.09612 0.388607,-1.94717 0,-0.47792 0.115853,-0.97035 0,-1.43402 -0.139245,-0.55729 -0.540622,-1.01341 -0.810804,-1.52032 -0.445801,-0.83641 -1.943825,-2.75838 -3.328995,-4.27054 -0.839494,-0.91646 -1.818287,-1.72217 -2.518193,-2.74919 -0.414703,-0.60852 -0.647004,-1.32335 -0.970483,-1.98489 -0.32348,-0.66154 -0.80447,-1.26693 -0.970484,-1.98437 -0.208768,-0.9022 0,-1.85209 0,-2.77813 0,-0.64738 -0.07408,3.78775 2.251007,7.32049 z m 64.650212,-6.83632 c 0.3797,4.09602 4.21712,8.62323 4.32807,8.57155 -0.33109,-2.71652 -1.69761,-5.65323 -4.32807,-8.57155 z m -4.63071,-0.59183 c -0.1236,0.0764 0.2428,1.88187 0.21955,2.82663 -0.0404,1.64231 -0.13211,3.3211 -0.62288,4.88888 -0.50446,1.61151 -1.67897,2.86319 -2.33942,4.49334 0.71934,-0.68508 0.93005,-0.89683 1.23123,-1.18162 0.49694,-0.4699 2.74883,-2.33164 1.79885,-2.33164 -0.94318,0 1.08526,-2.28733 1.33842,-3.36465 0.54562,-2.32188 0.54207,-2.03262 1.07694,-0.23152 0.51872,1.74674 0.24442,1.67496 0.62735,2.93678 0.27359,0.90156 0.28759,1.44997 -0.25305,1.95853 1.17663,0.0217 0.98095,-3.29221 0.52606,-5.52679 -0.38956,-1.91368 -3.3085,-4.35094 -3.60305,-4.46794 z m -28.86638,6.06784 c 0.25702,3.58875 2.05137,6.95249 3.7664,10.11538 1.21341,2.23778 4.35161,3.59947 4.54401,6.13778 0.17913,2.36333 -3.17399,3.92152 -3.32106,6.28706 -0.0898,1.44356 -0.01,3.68868 1.53583,4.05815 1.42601,0.34091 1.719,0.26996 2.75797,-0.66869 2.97039,-3.29844 3.906,-7.20857 2.43293,-11.18795 -1.15744,-2.37146 -0.91513,-4.00663 0.72037,-6.10712 0.66182,-0.82408 2.10372,-1.25061 1.49396,-1.88774 0.0539,0.8003 -1.57941,1.09806 -2.33784,1.68878 -0.42319,0.32961 -0.69657,1.02805 -1.233,1.03405 -0.30527,0.004 -4.11884,-2.05229 -5.57899,-3.75257 -1.94625,-2.26633 -3.41557,-5.14697 -3.82089,-8.10668 -0.43217,-3.15576 0.46052,-4.28806 1.60015,-9.42071 -2.13462,3.2348 -2.8476,7.79238 -2.55984,11.81026 z m 19.97276,6.63208 c 0.3239,-0.89178 0.35062,-1.01714 0,0 z m -0.88738,-2.7652 c -1.35204,1.87944 -4.87151,6.31161 -2.50724,5.55675 1.30087,-0.41534 3.12575,-6.41653 2.50724,-5.55675 z m 0.6612,3.34061 c -0.28138,0.62031 -0.65128,1.18967 -1.1343,1.7384 -0.1904,0.21632 -0.38707,0.42016 -0.57309,0.59738 -0.64126,0.70104 -1.26886,1.16738 -1.61075,1.07797 -0.60183,-0.15738 -1.69357,0.67979 -2.22416,1.70584 -0.024,0.0465 -0.0462,0.0915 -0.0672,0.13487 -0.0919,0.20054 -0.15916,0.38211 -0.20153,0.54312 -0.11198,0.55311 0.36067,0.4835 1.29501,-0.2589 0.39816,-0.31636 1.26995,-0.9411 2.24224,-1.61178 0.14009,-0.16861 0.28921,-0.33245 0.44648,-0.49093 -0.10042,0.0532 -0.20193,0.10649 -0.30541,0.15916 -0.46169,0.23503 -1.39158,0.90566 -2.06654,1.48983 -1.36999,1.18576 -1.45934,1.22662 -1.45934,0.66921 0,-0.69264 1.43372,-2.04447 2.26136,-2.13217 1.24754,-0.13219 2.55336,-1.64141 3.39721,-3.622 z m -44.059963,-1.21711 c 1.762699,3.42939 2.901077,4.07948 2.798053,6.40793 -0.07099,1.60456 -1.572303,2.80186 -2.310624,4.22823 -1.001432,1.93468 -1.86822,4.15221 -1.545126,5.59139 0.11871,0.52878 0.585338,0.9123 0.877983,1.36839 0.482867,0.75256 1.080708,1.73482 1.328601,2.18281 0.717576,1.29679 0.738097,0.95435 0.0584,-0.97152 -0.399399,-1.13165 -0.527227,-2.27002 -0.635621,-3.42666 -0.396305,-1.92579 0.868573,-3.43369 1.5818,-5.10615 0.538758,-1.37688 1.536386,-2.74509 1.380287,-4.21536 -0.246848,-2.32501 -1.203887,-3.22097 -3.533753,-6.05906 z m 39.427683,15.00088 c 0.21795,0.40296 0.72513,1.87589 1.49277,1.77801 0.2355,-0.03 0.3181,-0.40581 0.30643,-0.64293 -0.0517,-1.05023 -0.95612,-1.89363 -1.63023,-2.70062 -0.33506,-0.4011 -0.74469,-0.50028 -1.17663,-1.03626 -0.0595,0.97439 0.56666,1.77696 1.00766,2.6018 z m 1.56499,1.04541 c -0.17198,0.88616 -0.66573,0.4981 -1.48828,-1.16995 -2.2204,-4.50265 1.58892,0.65123 1.48828,1.16995 z m -48.349722,-1.75338 c -0.145521,0 -1.97505,1.22701 -2.06499,1.37253 -1.032519,0.90619 0.303025,0.79375 0.44855,0.79375 0.14552,0 0.71828,-0.51594 0.80822,-0.66146 0.08994,-0.14552 0.953745,-1.50482 0.80822,-1.50482 z m 51.197902,8.52921 c -0.14381,-0.003 -0.4962,0.0607 -0.92604,0.16484 0.31925,-0.0373 0.62892,-0.091 0.92604,-0.16484 z" /></g></svg>
