<?xml version="1.0" encoding="UTF-8" standalone="no"?>
<!-- Created with Inkscape (http://www.inkscape.org/) -->

<svg
   width="36.432789mm"
   height="242.9278mm"
   viewBox="0 0 36.432789 242.92779"
   version="1.1"
   id="svg1"
   xml:space="preserve"
   xmlns="http://www.w3.org/2000/svg"
   xmlns:svg="http://www.w3.org/2000/svg"><defs
     id="defs1" /><g
     id="layer1"
     transform="translate(-92.274793,-12.980329)"
     style="display:inline"><path
       id="path1"
       style="display:inline;fill:#040303"
       d="M 109.79569,12.98033 98.524541,34.228645 92.274793,255.90814 H 128.70759 L 120.93196,33.60181 Z" /><path
       id="path53"
       style="display:inline;fill:#666666"
       d="m 106.72094,23.500101 -4.1398,9.537919 -0.21291,8.202084 c -0.82508,31.812822 -2.721566,130.085436 -1.73529,130.080436 0.74157,-0.62769 0.62475,-0.5 0.91984,-6.32158 0.7582,-14.95771 1.7098,-66.2073 2.04535,-110.132815 l 0.16485,-21.563541 c 0.79636,-3.388713 0.74656,-3.237553 2.95796,-9.802503 z m -6.14691,150.455929 c -0.13664,0.80089 -0.28697,2.02869 -0.24857,2.64739 -0.0133,0.59155 -0.31797,3.09232 0.51574,3.09232 0.30831,-2.07026 0.11173,-0.33055 0.27801,-2.82567 0.0393,-0.59041 -0.0526,-2.11315 -0.54518,-2.91404 z" /></g></svg>
